<mxfile host="app.diagrams.net" modified="2022-11-11T01:01:48.487Z" agent="5.0 (Windows NT 10.0; Win64; x64) AppleWebKit/537.36 (KHTML, like Gecko) Chrome/107.0.0.0 Safari/537.36" etag="V_AsWMKfqkZITNcd3LAR" version="20.4.0" type="github">
  <diagram id="R2lEEEUBdFMjLlhIrx00" name="Page-1">
    <mxGraphModel dx="868" dy="482" grid="1" gridSize="10" guides="1" tooltips="1" connect="1" arrows="1" fold="1" page="1" pageScale="1" pageWidth="850" pageHeight="1100" math="0" shadow="0" extFonts="Permanent Marker^https://fonts.googleapis.com/css?family=Permanent+Marker">
      <root>
        <mxCell id="0" />
        <mxCell id="1" parent="0" />
        <mxCell id="k7mg1djWrPZgosc_BKo4-5" style="rounded=0;orthogonalLoop=1;jettySize=auto;html=1;exitX=0.5;exitY=1;exitDx=0;exitDy=0;entryX=0;entryY=0.5;entryDx=0;entryDy=0;endArrow=none;endFill=0;" edge="1" parent="1" source="k7mg1djWrPZgosc_BKo4-1" target="k7mg1djWrPZgosc_BKo4-2">
          <mxGeometry relative="1" as="geometry" />
        </mxCell>
        <mxCell id="k7mg1djWrPZgosc_BKo4-1" value="USUARIO" style="rounded=1;arcSize=10;whiteSpace=wrap;html=1;align=center;" vertex="1" parent="1">
          <mxGeometry x="375" y="190" width="100" height="40" as="geometry" />
        </mxCell>
        <mxCell id="k7mg1djWrPZgosc_BKo4-6" style="rounded=0;orthogonalLoop=1;jettySize=auto;html=1;exitX=0.5;exitY=1;exitDx=0;exitDy=0;entryX=0.5;entryY=0;entryDx=0;entryDy=0;endArrow=none;endFill=0;" edge="1" parent="1" source="k7mg1djWrPZgosc_BKo4-2" target="k7mg1djWrPZgosc_BKo4-3">
          <mxGeometry relative="1" as="geometry" />
        </mxCell>
        <mxCell id="k7mg1djWrPZgosc_BKo4-7" style="edgeStyle=none;rounded=0;orthogonalLoop=1;jettySize=auto;html=1;exitX=0.5;exitY=0;exitDx=0;exitDy=0;entryX=0.5;entryY=0;entryDx=0;entryDy=0;endArrow=none;endFill=0;" edge="1" parent="1" source="k7mg1djWrPZgosc_BKo4-2" target="k7mg1djWrPZgosc_BKo4-4">
          <mxGeometry relative="1" as="geometry" />
        </mxCell>
        <mxCell id="k7mg1djWrPZgosc_BKo4-2" value="" style="triangle;whiteSpace=wrap;html=1;rotation=90;" vertex="1" parent="1">
          <mxGeometry x="406" y="260" width="37.5" height="50" as="geometry" />
        </mxCell>
        <mxCell id="k7mg1djWrPZgosc_BKo4-3" value="ADMINISTRADOR" style="rounded=1;arcSize=10;whiteSpace=wrap;html=1;align=center;" vertex="1" parent="1">
          <mxGeometry x="255" y="350" width="120" height="40" as="geometry" />
        </mxCell>
        <mxCell id="k7mg1djWrPZgosc_BKo4-4" value="CLIENTE" style="rounded=1;arcSize=10;whiteSpace=wrap;html=1;align=center;" vertex="1" parent="1">
          <mxGeometry x="475" y="350" width="100" height="40" as="geometry" />
        </mxCell>
      </root>
    </mxGraphModel>
  </diagram>
</mxfile>
